<mxfile host="app.diagrams.net" modified="2022-04-30T16:09:09.928Z" agent="5.0 (Windows NT 10.0; Win64; x64) AppleWebKit/537.36 (KHTML, like Gecko) Chrome/101.0.4951.41 Safari/537.36 Edg/101.0.1210.32" etag="62nkomljSBUN0-4i_-Ch" version="17.5.0" type="github">
  <diagram id="B1rS9bqpKSy4gRJ6OLqf" name="Page-1">
    <mxGraphModel dx="868" dy="492" grid="1" gridSize="10" guides="1" tooltips="1" connect="1" arrows="1" fold="1" page="1" pageScale="1" pageWidth="827" pageHeight="1169" math="0" shadow="0">
      <root>
        <mxCell id="0" />
        <mxCell id="1" parent="0" />
        <mxCell id="E0qXdNN0w-Io1s_kiMO5-1" value="" style="verticalLabelPosition=bottom;verticalAlign=top;html=1;shadow=0;dashed=0;strokeWidth=1;shape=mxgraph.android.phone2;strokeColor=#c0c0c0;" vertex="1" parent="1">
          <mxGeometry x="40" y="34" width="200" height="390" as="geometry" />
        </mxCell>
        <mxCell id="E0qXdNN0w-Io1s_kiMO5-2" value="" style="verticalLabelPosition=bottom;verticalAlign=top;html=1;shadow=0;dashed=0;strokeWidth=1;shape=mxgraph.android.phone2;strokeColor=#c0c0c0;" vertex="1" parent="1">
          <mxGeometry x="280" y="34" width="200" height="390" as="geometry" />
        </mxCell>
        <mxCell id="E0qXdNN0w-Io1s_kiMO5-3" value="SIGUIENTE" style="rounded=1;html=1;shadow=0;dashed=0;whiteSpace=wrap;fontSize=10;fillColor=#666666;align=center;strokeColor=#4D4D4D;fontColor=#ffffff;" vertex="1" parent="1">
          <mxGeometry x="80" y="370" width="105.5" height="16.88" as="geometry" />
        </mxCell>
        <mxCell id="E0qXdNN0w-Io1s_kiMO5-4" value="Estaciones Exteriores" style="text;html=1;strokeColor=none;fillColor=none;align=left;verticalAlign=middle;whiteSpace=wrap;rounded=0;" vertex="1" parent="1">
          <mxGeometry x="50" y="120" width="120" height="30" as="geometry" />
        </mxCell>
        <mxCell id="E0qXdNN0w-Io1s_kiMO5-5" value="Estaciones Interiores" style="text;html=1;strokeColor=none;fillColor=none;align=left;verticalAlign=middle;whiteSpace=wrap;rounded=0;" vertex="1" parent="1">
          <mxGeometry x="50" y="150" width="120" height="30" as="geometry" />
        </mxCell>
        <mxCell id="E0qXdNN0w-Io1s_kiMO5-6" value="Bebederos" style="text;html=1;strokeColor=none;fillColor=none;align=left;verticalAlign=middle;whiteSpace=wrap;rounded=0;" vertex="1" parent="1">
          <mxGeometry x="50" y="180" width="120" height="30" as="geometry" />
        </mxCell>
        <mxCell id="E0qXdNN0w-Io1s_kiMO5-7" value="20" style="strokeWidth=1;html=1;shadow=0;dashed=0;shape=mxgraph.android.spinner2;align=center;fillColor=#999999;strokeColor=#999999;verticalAlign=bottom" vertex="1" parent="1">
          <mxGeometry x="185.5" y="130" width="30" height="10" as="geometry" />
        </mxCell>
        <mxCell id="E0qXdNN0w-Io1s_kiMO5-8" value="10" style="strokeWidth=1;html=1;shadow=0;dashed=0;shape=mxgraph.android.spinner2;align=center;fillColor=#999999;strokeColor=#999999;verticalAlign=bottom" vertex="1" parent="1">
          <mxGeometry x="185.5" y="160" width="30" height="10" as="geometry" />
        </mxCell>
        <mxCell id="E0qXdNN0w-Io1s_kiMO5-9" value="5" style="strokeWidth=1;html=1;shadow=0;dashed=0;shape=mxgraph.android.spinner2;align=center;fillColor=#999999;strokeColor=#999999;verticalAlign=bottom" vertex="1" parent="1">
          <mxGeometry x="185.5" y="190" width="30" height="10" as="geometry" />
        </mxCell>
        <mxCell id="E0qXdNN0w-Io1s_kiMO5-10" value="REPORTE CONTROL" style="strokeWidth=1;html=1;shadow=0;dashed=0;shape=mxgraph.android.action_bar;fillColor=#E6E6E6;strokeColor=#c0c0c0;strokeWidth=2;" vertex="1" parent="1">
          <mxGeometry x="47.5" y="70" width="185" height="30" as="geometry" />
        </mxCell>
        <mxCell id="E0qXdNN0w-Io1s_kiMO5-11" value="DESRATIZACION" style="strokeWidth=1;html=1;shadow=0;dashed=0;shape=mxgraph.android.action_bar;fillColor=#E6E6E6;strokeColor=#c0c0c0;strokeWidth=2;" vertex="1" parent="1">
          <mxGeometry x="287.5" y="70" width="185" height="30" as="geometry" />
        </mxCell>
        <mxCell id="E0qXdNN0w-Io1s_kiMO5-12" value="SIGUIENTE" style="rounded=1;html=1;shadow=0;dashed=0;whiteSpace=wrap;fontSize=10;fillColor=#666666;align=center;strokeColor=#4D4D4D;fontColor=#ffffff;" vertex="1" parent="1">
          <mxGeometry x="327.25" y="370" width="105.5" height="16.88" as="geometry" />
        </mxCell>
        <mxCell id="E0qXdNN0w-Io1s_kiMO5-13" value="AGREGAR PRODUCTO" style="rounded=1;html=1;shadow=0;dashed=0;whiteSpace=wrap;fontSize=10;fillColor=#6666FF;align=center;strokeColor=#4D4D4D;fontColor=#ffffff;" vertex="1" parent="1">
          <mxGeometry x="330" y="103.12" width="130" height="16.88" as="geometry" />
        </mxCell>
        <mxCell id="E0qXdNN0w-Io1s_kiMO5-14" value="" style="html=1;shadow=0;dashed=0;shape=mxgraph.bootstrap.rrect;rSize=5;strokeColor=#DFDFDF;html=1;whiteSpace=wrap;fillColor=#FFFFFF;fontColor=#000000;" vertex="1" parent="1">
          <mxGeometry x="288" y="130" width="182" height="200" as="geometry" />
        </mxCell>
        <mxCell id="E0qXdNN0w-Io1s_kiMO5-15" value="CONTRAC BLOCK&lt;br&gt;BROMADILONA&lt;br&gt;CANTIDAD: 1&lt;br&gt;AREA DE PASILLOS" style="strokeColor=inherit;fillColor=inherit;gradientColor=inherit;fontColor=inherit;html=1;shadow=0;dashed=0;shape=mxgraph.bootstrap.topButton;rSize=5;perimeter=none;whiteSpace=wrap;resizeWidth=1;align=left;spacing=10;" vertex="1" parent="E0qXdNN0w-Io1s_kiMO5-14">
          <mxGeometry width="182" height="70" relative="1" as="geometry" />
        </mxCell>
        <mxCell id="E0qXdNN0w-Io1s_kiMO5-22" value="CONTRAC BLOCK&lt;br&gt;BROMADILONA&lt;br&gt;CANTIDAD: 1&lt;br&gt;AREA DE PASILLOS" style="strokeColor=inherit;fillColor=inherit;gradientColor=inherit;fontColor=inherit;html=1;shadow=0;dashed=0;shape=mxgraph.bootstrap.topButton;rSize=5;perimeter=none;whiteSpace=wrap;resizeWidth=1;align=left;spacing=10;" vertex="1" parent="E0qXdNN0w-Io1s_kiMO5-14">
          <mxGeometry y="70.00333333333333" width="182" height="93.33333333333333" as="geometry" />
        </mxCell>
        <mxCell id="E0qXdNN0w-Io1s_kiMO5-23" value="" style="verticalLabelPosition=bottom;verticalAlign=top;html=1;shadow=0;dashed=0;strokeWidth=1;shape=mxgraph.android.phone2;strokeColor=#c0c0c0;" vertex="1" parent="1">
          <mxGeometry x="510" y="35" width="200" height="390" as="geometry" />
        </mxCell>
        <mxCell id="E0qXdNN0w-Io1s_kiMO5-24" value="DESINFECCION" style="strokeWidth=1;html=1;shadow=0;dashed=0;shape=mxgraph.android.action_bar;fillColor=#E6E6E6;strokeColor=#c0c0c0;strokeWidth=2;" vertex="1" parent="1">
          <mxGeometry x="517.5" y="71" width="185" height="30" as="geometry" />
        </mxCell>
        <mxCell id="E0qXdNN0w-Io1s_kiMO5-25" value="AGREGAR PRODUCTO" style="rounded=1;html=1;shadow=0;dashed=0;whiteSpace=wrap;fontSize=10;fillColor=#6666FF;align=center;strokeColor=#4D4D4D;fontColor=#ffffff;" vertex="1" parent="1">
          <mxGeometry x="570" y="140" width="130" height="16.88" as="geometry" />
        </mxCell>
        <mxCell id="E0qXdNN0w-Io1s_kiMO5-26" value="" style="html=1;shadow=0;dashed=0;shape=mxgraph.bootstrap.rrect;rSize=5;strokeColor=#DFDFDF;html=1;whiteSpace=wrap;fillColor=#FFFFFF;fontColor=#000000;" vertex="1" parent="1">
          <mxGeometry x="518" y="164" width="182" height="200" as="geometry" />
        </mxCell>
        <mxCell id="E0qXdNN0w-Io1s_kiMO5-27" value="CONTRAC BLOCK&lt;br&gt;BROMADILONA&lt;br&gt;CANTIDAD: 1&lt;br&gt;AREA DE PASILLOS" style="strokeColor=inherit;fillColor=inherit;gradientColor=inherit;fontColor=inherit;html=1;shadow=0;dashed=0;shape=mxgraph.bootstrap.topButton;rSize=5;perimeter=none;whiteSpace=wrap;resizeWidth=1;align=left;spacing=10;" vertex="1" parent="E0qXdNN0w-Io1s_kiMO5-26">
          <mxGeometry width="182" height="70" relative="1" as="geometry" />
        </mxCell>
        <mxCell id="E0qXdNN0w-Io1s_kiMO5-28" value="CONTRAC BLOCK&lt;br&gt;BROMADILONA&lt;br&gt;CANTIDAD: 1&lt;br&gt;AREA DE PASILLOS" style="strokeColor=inherit;fillColor=inherit;gradientColor=inherit;fontColor=inherit;html=1;shadow=0;dashed=0;shape=mxgraph.bootstrap.topButton;rSize=5;perimeter=none;whiteSpace=wrap;resizeWidth=1;align=left;spacing=10;" vertex="1" parent="E0qXdNN0w-Io1s_kiMO5-26">
          <mxGeometry y="70.00333333333333" width="182" height="93.33333333333333" as="geometry" />
        </mxCell>
        <mxCell id="E0qXdNN0w-Io1s_kiMO5-29" value="SIGUIENTE" style="rounded=1;html=1;shadow=0;dashed=0;whiteSpace=wrap;fontSize=10;fillColor=#666666;align=center;strokeColor=#4D4D4D;fontColor=#ffffff;" vertex="1" parent="1">
          <mxGeometry x="557.25" y="370" width="105.5" height="16.88" as="geometry" />
        </mxCell>
        <mxCell id="E0qXdNN0w-Io1s_kiMO5-32" value="Tipo" style="text;html=1;strokeColor=none;fillColor=none;align=left;verticalAlign=middle;whiteSpace=wrap;rounded=0;" vertex="1" parent="1">
          <mxGeometry x="530" y="103.12" width="30" height="30" as="geometry" />
        </mxCell>
        <mxCell id="E0qXdNN0w-Io1s_kiMO5-33" value="RAS/AERE/AREA&amp;nbsp;" style="strokeWidth=1;html=1;shadow=0;dashed=0;shape=mxgraph.android.spinner2;align=center;fillColor=#999999;strokeColor=#999999;verticalAlign=bottom" vertex="1" parent="1">
          <mxGeometry x="570" y="113.12" width="120" height="10" as="geometry" />
        </mxCell>
        <mxCell id="E0qXdNN0w-Io1s_kiMO5-34" value="" style="verticalLabelPosition=bottom;verticalAlign=top;html=1;shadow=0;dashed=0;strokeWidth=1;shape=mxgraph.android.phone2;strokeColor=#c0c0c0;" vertex="1" parent="1">
          <mxGeometry x="750" y="34" width="200" height="390" as="geometry" />
        </mxCell>
        <mxCell id="E0qXdNN0w-Io1s_kiMO5-35" value="VECTOR" style="strokeWidth=1;html=1;shadow=0;dashed=0;shape=mxgraph.android.action_bar;fillColor=#E6E6E6;strokeColor=#c0c0c0;strokeWidth=2;" vertex="1" parent="1">
          <mxGeometry x="757.5" y="70" width="185" height="30" as="geometry" />
        </mxCell>
        <mxCell id="E0qXdNN0w-Io1s_kiMO5-36" value="Tipo" style="text;html=1;strokeColor=none;fillColor=none;align=left;verticalAlign=middle;whiteSpace=wrap;rounded=0;" vertex="1" parent="1">
          <mxGeometry x="770" y="103.12" width="34" height="30" as="geometry" />
        </mxCell>
        <mxCell id="E0qXdNN0w-Io1s_kiMO5-37" value="ROE/MOS/RAS/OTR" style="strokeWidth=1;html=1;shadow=0;dashed=0;shape=mxgraph.android.spinner2;align=center;fillColor=#999999;strokeColor=#999999;verticalAlign=bottom" vertex="1" parent="1">
          <mxGeometry x="830" y="110" width="102.5" height="10" as="geometry" />
        </mxCell>
        <mxCell id="E0qXdNN0w-Io1s_kiMO5-38" value="Incidencia" style="text;html=1;strokeColor=none;fillColor=none;align=left;verticalAlign=middle;whiteSpace=wrap;rounded=0;" vertex="1" parent="1">
          <mxGeometry x="764" y="125.12" width="34" height="30" as="geometry" />
        </mxCell>
        <mxCell id="E0qXdNN0w-Io1s_kiMO5-39" value="ALTA/MEDIA/BAJA" style="strokeWidth=1;html=1;shadow=0;dashed=0;shape=mxgraph.android.spinner2;align=center;fillColor=#999999;strokeColor=#999999;verticalAlign=bottom" vertex="1" parent="1">
          <mxGeometry x="830" y="134" width="110" height="10" as="geometry" />
        </mxCell>
        <mxCell id="E0qXdNN0w-Io1s_kiMO5-42" value="" style="verticalLabelPosition=bottom;verticalAlign=top;html=1;shadow=0;dashed=0;strokeWidth=1;shape=mxgraph.android.phone2;strokeColor=#c0c0c0;" vertex="1" parent="1">
          <mxGeometry x="980" y="34" width="200" height="390" as="geometry" />
        </mxCell>
        <mxCell id="E0qXdNN0w-Io1s_kiMO5-43" value="OBSERVACIONES" style="strokeWidth=1;html=1;shadow=0;dashed=0;shape=mxgraph.android.action_bar;fillColor=#E6E6E6;strokeColor=#c0c0c0;strokeWidth=2;" vertex="1" parent="1">
          <mxGeometry x="987.5" y="70" width="185" height="30" as="geometry" />
        </mxCell>
        <mxCell id="E0qXdNN0w-Io1s_kiMO5-44" value="Lorem ipsum dolor sit amet, consectetur adipisicing elit, sed do eiusmod tempor incididunt ut labore et dolore magna aliqua.&#xa;" style="text;spacing=5;spacingTop=-20;whiteSpace=wrap;overflow=hidden;rounded=0;verticalAlign=middle;horizontal=1;labelPosition=center;verticalLabelPosition=middle;align=center;labelBackgroundColor=none;strokeColor=default;" vertex="1" parent="1">
          <mxGeometry x="992.5" y="100" width="180" height="100" as="geometry" />
        </mxCell>
        <mxCell id="E0qXdNN0w-Io1s_kiMO5-45" value="Proxima Visita" style="text;html=1;strokeColor=none;fillColor=none;align=left;verticalAlign=middle;whiteSpace=wrap;rounded=0;" vertex="1" parent="1">
          <mxGeometry x="992.5" y="210" width="34" height="30" as="geometry" />
        </mxCell>
        <UserObject label="%date{ddd mmm dd yyyy HH:MM:ss}%" placeholders="1" id="E0qXdNN0w-Io1s_kiMO5-46">
          <mxCell style="text;html=1;strokeColor=none;fillColor=none;align=center;verticalAlign=middle;whiteSpace=wrap;overflow=hidden;labelBackgroundColor=none;" vertex="1" parent="1">
            <mxGeometry x="1072.5" y="215" width="100" height="20" as="geometry" />
          </mxCell>
        </UserObject>
      </root>
    </mxGraphModel>
  </diagram>
</mxfile>
